<?xml version="1.0" encoding="utf-8"?>
<!-- Generator: Adobe Illustrator 25.0.0, SVG Export Plug-In . SVG Version: 6.00 Build 0)  -->
<svg version="1.1"
	 id="svg269018" xmlns:cc="http://creativecommons.org/ns#" xmlns:dc="http://purl.org/dc/elements/1.1/" xmlns:rdf="http://www.w3.org/1999/02/22-rdf-syntax-ns#" xmlns:svg="http://www.w3.org/2000/svg"
	 xmlns="http://www.w3.org/2000/svg" xmlns:xlink="http://www.w3.org/1999/xlink" x="0px" y="0px" viewBox="0 0 110 110"
	 style="enable-background:new 0 0 110 110;" xml:space="preserve">
<style type="text/css">
	.st0{fill:#BF371F;}
	.st1{fill:#522C16;}
	.st2{fill:#DDCA93;}
</style>
<polygon class="st0" points="55,107.2 9.8,81.1 9.8,28.9 55,2.8 100.2,28.9 100.2,81.1 "/>
<g id="logo-group">
	<g id="logo-center" transform="translate(190.50475 0)">
		<path class="st1" d="M-88.9,54.9c0-8.2,0-16.4,0-24.6c0-1.8-0.5-2.9-2.1-3.8c-14.2-8.2-28.4-16.5-42.6-24.6
			c-0.9-0.5-2.7-0.5-3.7,0c-14.3,8.1-28.4,16.4-42.6,24.6c-1.6,0.9-2.1,2-2.1,3.8c0.1,16.4,0.1,32.8,0,49.2c0,1.7,0.5,2.7,2,3.6
			c14.2,8.2,28.4,16.4,42.6,24.7c1.5,0.9,2.6,0.9,4,0c14.1-8.2,28.2-16.4,42.3-24.6c1.7-1,2.3-2.1,2.2-4C-89,71.1-88.9,63-88.9,54.9
			z M-136.6,104.1c0,0.3-0.1,0.6-0.2,1.3c-1-0.5-1.7-0.8-2.4-1.2c-12.8-7.4-25.6-14.8-38.4-22.4c-1-0.6-2.2-2.2-2.2-3.3
			c-0.1-15.3-0.1-30.6-0.1-45.9c0-0.6,0.1-1.1,0.2-2c1,0.5,1.8,0.8,2.5,1.2c12.8,7.4,25.7,14.8,38.4,22.4c1,0.6,2,2,2,3.1
			C-136.6,73-136.6,88.5-136.6,104.1z M-137.3,52.2c-13.2-7.5-26.4-15.1-39.5-22.8c-0.5-0.3-0.9-0.7-1.6-1.2
			c1.1-0.7,1.8-1.2,2.7-1.7c12.6-7.3,25.3-14.6,37.9-22c1.8-1,3.1-1.1,4.8,0c12.6,7.4,25.3,14.7,37.9,22c0.8,0.5,1.6,1,2.7,1.7
			c-0.9,0.6-1.5,1.1-2.2,1.4c-12.9,7.5-25.8,15-38.7,22.4C-134.4,52.7-136.3,52.8-137.3,52.2z M-91.3,78.5c0,1.1-1.1,2.7-2.2,3.3
			c-12.8,7.5-25.6,14.9-38.4,22.4c-0.7,0.4-1.4,0.7-2.4,1.2c-0.1-0.7-0.2-1-0.2-1.3c0-15.6-0.1-31.2,0.1-46.8c0-1.1,1.1-2.5,2-3.1
			c12.8-7.5,25.6-14.9,38.4-22.4c0.7-0.4,1.5-0.8,2.5-1.2c0.1,0.9,0.2,1.4,0.2,2C-91.2,47.9-91.2,63.2-91.3,78.5z"/>
	</g>
</g>
<path id="path269075" class="st2" d="M77,80.2h3.6l-0.1-50.4h-3L55,68.8l-22.5-39h-3.1v50.4H33v-43l21.1,36.3h1.8L77,37.1
	C77,37.1,77,80.2,77,80.2z"/>
</svg>
