<?xml version="1.0" encoding="utf-8"?>
<!-- Generator: Adobe Illustrator 25.0.0, SVG Export Plug-In . SVG Version: 6.00 Build 0)  -->
<svg version="1.1"
	 id="svg269018" xmlns:cc="http://creativecommons.org/ns#" xmlns:dc="http://purl.org/dc/elements/1.1/" xmlns:rdf="http://www.w3.org/1999/02/22-rdf-syntax-ns#" xmlns:svg="http://www.w3.org/2000/svg"
	 xmlns="http://www.w3.org/2000/svg" xmlns:xlink="http://www.w3.org/1999/xlink" x="0px" y="0px" viewBox="0 0 93.1 107.3"
	 style="enable-background:new 0 0 93.1 107.3;" xml:space="preserve">
<style type="text/css">
	.st0{fill:#BF371F;}
	.st1{fill:#522C16;}
	.st2{fill:#DDCA93;}
</style>
<polygon class="st0" points="46.5,105.9 1.4,79.8 1.4,27.6 46.5,1.5 91.8,27.6 91.8,79.8 "/>
<g id="logo-group">
	<g id="logo-center" transform="translate(190.50475 0)">
		<path class="st1" d="M-97.4,53.7c0-8.2,0-16.4,0-24.6c0-1.8-0.5-2.9-2.1-3.8c-14.2-8.2-28.4-16.5-42.6-24.6
			c-0.9-0.5-2.7-0.5-3.7,0c-14.3,8.1-28.4,16.4-42.6,24.6c-1.6,0.9-2.1,2-2.1,3.8c0.1,16.4,0.1,32.8,0,49.2c0,1.7,0.5,2.7,2,3.6
			c14.2,8.2,28.4,16.4,42.6,24.7c1.5,0.9,2.6,0.9,4,0c14.1-8.2,28.2-16.4,42.3-24.6c1.7-1,2.3-2.1,2.2-4
			C-97.5,69.9-97.4,61.8-97.4,53.7z M-145.1,102.9c0,0.3-0.1,0.6-0.2,1.3c-1-0.5-1.7-0.8-2.4-1.2c-12.8-7.4-25.6-14.8-38.4-22.4
			c-1-0.6-2.2-2.2-2.2-3.3c-0.1-15.3-0.1-30.6-0.1-45.9c0-0.6,0.1-1.1,0.2-2c1,0.5,1.8,0.8,2.5,1.2C-172.9,38-160,45.4-147.3,53
			c1,0.6,2,2,2,3.1C-145.1,71.8-145.1,87.3-145.1,102.9z M-145.8,51c-13.2-7.5-26.4-15.1-39.5-22.8c-0.5-0.3-0.9-0.7-1.6-1.2
			c1.1-0.7,1.8-1.2,2.7-1.7c12.6-7.3,25.3-14.6,37.9-22c1.8-1,3.1-1.1,4.8,0c12.6,7.4,25.3,14.7,37.9,22c0.8,0.5,1.6,1,2.7,1.7
			c-0.9,0.6-1.5,1.1-2.2,1.4c-12.9,7.5-25.8,15-38.7,22.4C-142.9,51.5-144.8,51.6-145.8,51z M-99.8,77.3c0,1.1-1.1,2.7-2.2,3.3
			c-12.8,7.5-25.6,14.9-38.4,22.4c-0.7,0.4-1.4,0.7-2.4,1.2c-0.1-0.7-0.2-1-0.2-1.3c0-15.6-0.1-31.2,0.1-46.8c0-1.1,1.1-2.5,2-3.1
			c12.8-7.5,25.6-14.9,38.4-22.4c0.7-0.4,1.5-0.8,2.5-1.2c0.1,0.9,0.2,1.4,0.2,2C-99.7,46.7-99.7,62-99.8,77.3z"/>
	</g>
</g>
<path id="path269075" class="st2" d="M68.5,79h3.6L72,28.6h-3l-22.5,39L24,28.6h-3.1V79h3.6V36l21.1,36.3h1.8l21.1-36.4V79z"/>
</svg>
