<svg id="Capa_1" data-name="Capa 1" xmlns="http://www.w3.org/2000/svg" viewBox="0 0 731.64 319.81"><defs><style>.cls-1{fill:#4a9da0;}.cls-2{fill:#fff;}.cls-3{fill:#63d2d6;}.cls-4{fill:#4da0a3;}</style></defs><path class="cls-1" d="M159,319.91c-17.52-10.26-35-20.59-52.58-30.77q-40.42-23.4-81-46.56c-3.41-1.94-4.34-4.13-4.33-7.88q.18-74.2,0-148.4c0-4.87,1.59-7.28,5.68-9.63q64.61-37,129-74.35C156.83,1.66,157.87.84,159,.1h2c17.52,10.26,35,20.59,52.57,30.76q40.42,23.4,81,46.56c3.4,1.93,4.36,4.12,4.35,7.88q-.19,74.21,0,148.4c0,4.87-1.58,7.28-5.68,9.63q-64.17,36.72-128.13,73.84c-1.43.82-2.76,1.82-4.14,2.74Z" transform="translate(-21.01 -0.1)"/><path class="cls-2" d="M697.71,242.25c-20.1-.08-37.15-3.19-53.3-10.74-3.11-1.46-4.37-2.94-2.65-6.39s1.93-8.65,4.51-10.16,6.73,2.26,10.27,3.52c17,6,34.47,9.35,52.49,6.55,19.75-3.07,30.36-23.41,22.3-41.81-2.81-6.42-8-10.07-14.32-12.39-11.9-4.38-24.4-6.6-36.62-9.84a102.56,102.56,0,0,1-21.07-7.58c-27.17-14-22.27-54.13-1.9-66.21,15.2-9,31.7-10.58,48.7-9.7,12.72.65,25,3.29,36.63,8.94,2.87,1.41,4.14,2.78,2.56,6.06s-1.67,8.21-4.13,9.86c-2.66,1.79-6.46-1.91-9.82-3-16.09-5.39-32.45-7.5-49.21-4.16-14.42,2.87-21.92,11.29-22.33,24.14-.3,9.19,3.88,15.55,11.86,19.7,7.2,3.74,15.15,5,22.87,6.94,8.39,2.15,16.91,3.83,25.17,6.36,24.16,7.39,34.46,22,32.74,45.77S737,236.85,713.23,241A100.45,100.45,0,0,1,697.71,242.25Z" transform="translate(-21.01 -0.1)"/><path class="cls-2" d="M537.72,161c0-24.64.09-49.29-.09-73.93,0-3.86.87-5,4.89-5q39,.28,78,0c4,0,4.95,1.06,4.69,5-.75,11.4-.57,11.42-12.26,11.42-17.49,0-35,.09-52.47-.08-3.54,0-4.46,1-4.42,4.48q.27,23.48,0,47c0,3.36,1,4.16,4.24,4.13,18.82-.14,37.65,0,56.47-.15,3.63,0,4.85.71,4.78,4.6-.19,11.09,0,11.09-11.25,11.09-16.33,0-32.66.14-49-.09-4-.06-5.33.9-5.28,5.14.23,20.31,0,40.63.17,60.94,0,3.34-.63,4.91-4.3,4.48-4.58-.54-10.71,2-13.36-1-2.27-2.57-.77-8.54-.77-13Q537.68,193.43,537.72,161Z" transform="translate(-21.01 -0.1)"/><path class="cls-2" d="M375.82,161c0,24.82-.06,49.63.08,74.45,0,3.35-.65,4.88-4.33,4.51a44.84,44.84,0,0,0-9.48,0c-4.08.46-4.92-1.14-4.9-5,.14-37.48.08-75,.08-112.43,0-12,.12-24-.07-36-.05-3.36.66-4.89,4.34-4.53a53.77,53.77,0,0,0,10,0c3.63-.35,4.39,1.09,4.37,4.49C375.76,111.37,375.82,136.18,375.82,161Z" transform="translate(-21.01 -0.1)"/><path class="cls-3" d="M46,79.9c-.75-2.87,1.24-4.21,3.3-5.4Q73.05,60.81,96.83,47.15c13.82-8,27.71-15.82,41.42-24,4.3-2.57,8-4.18,13.24-2A20.81,20.81,0,0,0,168,20.76c4-1.87,7.11-1.41,10.67.67,19.81,11.55,39.69,23,59.53,34.48C249.61,62.49,261,69,272.3,75.69c5.08,3,5.13,6.13.14,9q-26.74,15.5-53.57,30.85c-13.84,8-27.74,15.8-41.47,23.91-2.5,1.47-4.41,1.71-6.87.34-6.94-3.85-14-3.93-20.94-.09-2.68,1.49-4.68,1.11-7.31-.42q-46.57-27-93.34-53.72C46.53,84.2,45.56,82.57,46,79.9Z" transform="translate(-21.01 -0.1)"/><path class="cls-3" d="M289,160.49c0,17.65-.08,35.29.06,52.94,0,3.29-.67,5.58-3.68,7.36-6.68,4-9.82,10.34-10.21,17.81a7.23,7.23,0,0,1-4.09,6.66Q243.6,261,216.19,276.83,198.7,286.91,181.25,297c-1.72,1-3.45,2-5.26,2.85-4,1.88-7,.18-7-4.25q-.08-55.18-.06-110.36a5,5,0,0,1,2.82-4.74c7.14-4.35,11.49-10.53,11.21-19.2-.1-3,.93-4.73,3.64-6.28q47.21-26.88,94.26-54c4.83-2.77,8.08-.77,8.09,5Q289,133.29,289,160.49Z" transform="translate(-21.01 -0.1)"/><path class="cls-3" d="M151,240.65q0,26.73,0,53.45c0,6.6-2.6,8.34-8.29,5.1C122.3,287.61,102,275.84,81.75,264.15c-10.23-5.89-20.42-11.83-30.69-17.63-3.56-2-6.15-3.85-6.42-8.88a20.6,20.6,0,0,0-10.51-17.16c-2.4-1.4-3.28-3.21-3.27-6.07.1-36,.06-71.92.08-107.88,0-5.33,4.52-8,9.12-5.38q38.64,22.29,77.21,44.7c5.46,3.16,10.86,6.44,16.42,9.42,2.39,1.28,3.38,2.82,3.25,5.51-.41,8.87,3.81,15.34,11.2,19.69,2.76,1.63,2.84,3.69,2.84,6.24Q150.94,213.68,151,240.65Z" transform="translate(-21.01 -0.1)"/><path class="cls-4" d="M159.4,296.2V184.7h1V296.2Z" transform="translate(-21.01 -0.1)"/><path class="cls-2" d="M515.61,116.53c-1.7-13.94-8.87-24.12-21.76-30.07a60.8,60.8,0,0,0-21.15-5.52c-19-1.38-37.95-.22-56.92-.74-4-.11-4.94,1.12-4.92,5,.18,24.8.09,49.61.09,74.41,0,25.31.07,50.61-.08,75.91,0,3.44.8,4.79,4.39,4.45a52.82,52.82,0,0,1,10,0c3.7.36,4.77-.79,4.73-4.61-.21-19.47,0-38.95-.21-58.43-.05-4.32,1.09-5.22,5.25-4.8,14.78,1.47,29.58,1.86,44.27-1.11,17.75-3.58,30.59-12.65,35-31.16A65.66,65.66,0,0,0,515.61,116.53Zm-24.48,29.32c-4.66,6.16-11.5,8.35-18.58,9.7-13.35,2.55-26.88,1-40.34,1.23-2.62.05-2.34-1.71-2.34-3.38V127c0-8.65,0-17.3,0-25.95,0-2.12-.17-3.9,3-3.8,12.79.43,25.64-.8,38.4.72C495.31,100.78,505.86,126.34,491.13,145.85Z" transform="translate(-21.01 -0.1)"/></svg>