<?xml version="1.0" encoding="utf-8"?>
<!-- Generator: Adobe Illustrator 25.0.0, SVG Export Plug-In . SVG Version: 6.00 Build 0)  -->
<svg version="1.1"
	 id="svg269018" xmlns:cc="http://creativecommons.org/ns#" xmlns:dc="http://purl.org/dc/elements/1.1/" xmlns:rdf="http://www.w3.org/1999/02/22-rdf-syntax-ns#" xmlns:svg="http://www.w3.org/2000/svg"
	 xmlns="http://www.w3.org/2000/svg" xmlns:xlink="http://www.w3.org/1999/xlink" x="0px" y="0px" viewBox="0 0 663.8 116.3"
	 style="enable-background:new 0 0 663.8 116.3;" xml:space="preserve">
<style type="text/css">
	.st0{fill:#DDCA93;}
	.st1{fill:#522C16;}
</style>
<g id="logo-group">
	<g id="logo-center" transform="translate(190.50475 0)">
		<g id="title" transform="translate(0 0)">
			<path id="path269075" class="st0" d="M5.4,83.4H9L8.9,33h-3l-22.5,39l-22.5-39h-3.1v50.4h3.6v-43l21.1,36.3h1.8L5.4,40.3V83.4z"
				/>
			<path id="path269077" class="st0" d="M59.1,56.1H26.5v3.2h32.6V56.1L59.1,56.1z M59.1,33H26.5v3.3h32.6V33L59.1,33z M26.5,80v3.3
				h32.6V80H26.5z"/>
			<path id="path269079" class="st0" d="M84.3,36.3v47.1H88V36.3h18.1V33h-40v3.3H84.3z"/>
			<path id="path269081" class="st0" d="M131.1,33h-3.7l-23.2,50.4h4l21-46.4l21.1,46.4h4L131.1,33z"/>
			<path id="path269083" class="st0" d="M167.1,78.2c3.5,3.7,8.5,5.5,14.9,5.5c6.3,0,11.3-1.8,14.9-5.5c3.5-3.7,5.3-9.1,5.3-16.2V33
				h-3.7v28.9c0,6.2-1.4,10.9-4.2,13.9c-2.9,3.1-6.9,4.6-12.2,4.6c-5.4,0-9.5-1.5-12.3-4.6c-2.9-3-4.2-7.7-4.2-13.9V33h-3.7v29
				C161.9,69.1,163.6,74.5,167.1,78.2L167.1,78.2z"/>
			<path id="path269085" class="st0" d="M252.4,37.5c-3.6-3-8.6-4.5-14.9-4.5h-18.1v3.3h18.1c5.3,0,9.4,1.2,12.3,3.6
				c2.8,2.4,4.2,5.8,4.2,10.1c0,4.4-1.4,7.8-4.2,10.1c-2.9,2.4-7,3.5-12.3,3.5h-18.1v19.8h3.7V66.9h14.4c6.3,0,11.3-1.4,14.9-4.5
				c3.6-3,5.4-7.1,5.4-12.5C257.8,44.7,256,40.5,252.4,37.5z"/>
			<path id="path269087" class="st0" d="M270.2,33v50.4h32.7v-3.3h-29V33H270.2z"/>
			<path id="path269089" class="st0" d="M319.4,80.4c4,2.2,8.4,3.3,13.4,3.3c4.9,0,9.4-1.1,13.4-3.3c4-2.2,7.1-5.3,9.4-9.1
				c2.3-3.9,3.5-8.2,3.5-13.1c0-4.8-1.2-9.2-3.5-13.1s-5.4-6.9-9.4-9.1s-8.5-3.3-13.4-3.3c-5,0-9.4,1.2-13.4,3.4s-7.1,5.3-9.4,9.1
				s-3.4,8.3-3.4,13c0,4.8,1.1,9.1,3.4,13C312.2,75.1,315.3,78.2,319.4,80.4z M344.2,77.5c-3.5,1.9-7.3,2.9-11.4,2.9
				c-4.2,0-8.1-0.9-11.5-2.9c-3.5-1.9-6.1-4.5-8.1-7.9s-3-7.2-3-11.4s0.9-7.9,3-11.3c1.9-3.4,4.6-6,8.1-8c3.5-1.9,7.3-2.9,11.5-2.9
				s8,1,11.4,2.9c3.4,1.9,6,4.6,8.1,8c1.9,3.4,3,7.1,3,11.3s-1,8-3,11.4C350.3,72.9,347.6,75.6,344.2,77.5z"/>
			<path id="path269091" class="st0" d="M389.4,33h-3.7l-23.1,50.4h4l21-46.4l21.1,46.4h4L389.4,33z"/>
			<path id="path269093" class="st0" d="M465.1,45.2c-2.3-3.8-5.5-6.8-9.5-9c-4-2.2-8.7-3.2-13.9-3.2h-19.9v3.3h19.7
				c4.6,0,8.7,0.9,12.3,2.8c3.5,1.9,6.3,4.5,8.2,7.7c1.9,3.3,2.9,7.1,2.9,11.4s-1,8.1-2.9,11.4s-4.7,5.9-8.2,7.8
				c-3.6,1.9-7.7,2.7-12.3,2.7h-16V58.2h-3.7v25.2h19.9c5.2,0,9.9-1.1,13.9-3.2c4-2.1,7.2-5.1,9.5-8.9c2.2-3.8,3.4-8.1,3.4-13
				C468.5,53.3,467.3,49,465.1,45.2L465.1,45.2z"/>
		</g>
		<path class="st1" d="M-92.2,58.4c0-8.2,0-16.4,0-24.6c0-1.8-0.5-2.9-2.1-3.8c-14.2-8.2-28.4-16.5-42.6-24.6
			c-0.9-0.5-2.7-0.5-3.7,0c-14.3,8.1-28.4,16.4-42.6,24.6c-1.6,0.9-2.1,2-2.1,3.8c0.1,16.4,0.1,32.8,0,49.2c0,1.7,0.5,2.7,2,3.6
			c14.2,8.2,28.4,16.4,42.6,24.7c1.5,0.9,2.6,0.9,4,0c14.1-8.2,28.2-16.4,42.3-24.6c1.7-1,2.3-2.1,2.2-4
			C-92.3,74.6-92.2,66.5-92.2,58.4z M-139.9,107.6c0,0.3-0.1,0.6-0.2,1.3c-1-0.5-1.7-0.8-2.4-1.2c-12.8-7.4-25.6-14.8-38.4-22.4
			c-1-0.6-2.2-2.2-2.2-3.3c-0.1-15.3-0.1-30.6-0.1-45.9c0-0.6,0.1-1.1,0.2-2c1,0.5,1.8,0.8,2.5,1.2c12.8,7.4,25.7,14.8,38.4,22.4
			c1,0.6,2,2,2,3.1C-139.9,76.4-139.9,92-139.9,107.6z M-140.6,55.7c-13.2-7.5-26.4-15.1-39.5-22.8c-0.5-0.3-0.9-0.7-1.6-1.2
			c1.1-0.7,1.8-1.2,2.7-1.7c12.6-7.3,25.3-14.6,37.9-22c1.8-1,3.1-1.1,4.8,0c12.6,7.4,25.3,14.7,37.9,22c0.8,0.5,1.6,1,2.7,1.7
			c-0.9,0.6-1.5,1.1-2.2,1.4c-12.9,7.5-25.8,15-38.7,22.4C-137.7,56.2-139.6,56.3-140.6,55.7z M-94.6,82c0,1.1-1.1,2.7-2.2,3.3
			c-12.8,7.5-25.6,14.9-38.4,22.4c-0.7,0.4-1.4,0.7-2.4,1.2c-0.1-0.7-0.2-1-0.2-1.3c0-15.6-0.1-31.2,0.1-46.8c0-1.1,1.1-2.5,2-3.1
			c12.8-7.5,25.6-14.9,38.4-22.4c0.7-0.4,1.5-0.8,2.5-1.2c0.1,0.9,0.2,1.4,0.2,2C-94.5,51.4-94.5,66.7-94.6,82z"/>
	</g>
</g>
</svg>
