<?xml version="1.0" encoding="utf-8"?>
<!-- Generator: Adobe Illustrator 25.0.0, SVG Export Plug-In . SVG Version: 6.00 Build 0)  -->
<svg version="1.1"
	 id="svg269018" xmlns:cc="http://creativecommons.org/ns#" xmlns:dc="http://purl.org/dc/elements/1.1/" xmlns:rdf="http://www.w3.org/1999/02/22-rdf-syntax-ns#" xmlns:svg="http://www.w3.org/2000/svg"
	 xmlns="http://www.w3.org/2000/svg" xmlns:xlink="http://www.w3.org/1999/xlink" x="0px" y="0px" viewBox="0 0 663.8 116.3"
	 style="enable-background:new 0 0 663.8 116.3;" xml:space="preserve">
<style type="text/css">
	.st0{fill:#BF371F;}
	.st1{fill:#522C16;}
	.st2{fill:#DDCA93;}
</style>
<rect x="-0.2" class="st0" width="663.8" height="116.3"/>
<g id="logo-group">
	<g id="logo-center" transform="translate(190.50475 0)">
		<g id="slogan" transform="translate(0 0)">
			<path id="path269026" class="st1" d="M-35.5,83.6c1.6,0,3.1,0.4,4.4,1.1c1.3,0.7,2.4,1.7,3.1,3c0.8,1.3,1.1,2.7,1.1,4.3
				c0,1.6-0.4,3-1.2,4.3s-1.8,2.3-3.1,3c-1.3,0.7-2.8,1.1-4.5,1.1h-6.8V83.6H-35.5z M-35.4,98.3c1.2,0,2.2-0.3,3.2-0.8
				s1.7-1.3,2.3-2.3s0.8-2,0.8-3.2s-0.3-2.3-0.8-3.2c-0.6-1-1.3-1.7-2.3-2.3c-1-0.6-2-0.8-3.2-0.8h-4.5v12.6
				C-39.9,98.3-35.4,98.3-35.4,98.3z"/>
			<path id="path269028" class="st1" d="M-18.6,87.6c2,0,3.5,0.6,4.5,1.8c1,1.2,1.5,2.8,1.5,4.8c0,0.3,0,0.6,0,0.7h-10
				c0.2,1.1,0.6,2,1.4,2.7s1.7,1,2.9,1c0.8,0,1.4-0.1,2.1-0.4s1.2-0.7,1.7-1.2l1.2,1.3c-0.6,0.7-1.4,1.2-2.3,1.6
				c-0.9,0.4-1.9,0.6-2.9,0.6c-1.2,0-2.4-0.3-3.3-0.8c-1-0.5-1.7-1.3-2.3-2.3c-0.5-1-0.8-2.1-0.8-3.3c0-1.2,0.3-2.4,0.8-3.3
				c0.5-1,1.3-1.7,2.3-2.3C-21,87.9-19.9,87.6-18.6,87.6L-18.6,87.6z M-14.7,93.2c-0.1-1.2-0.4-2.1-1.2-2.7c-0.7-0.7-1.6-1-2.8-1
				c-1.1,0-2.1,0.3-2.8,1s-1.2,1.6-1.3,2.7H-14.7z"/>
			<path id="path269030" class="st1" d="M-0.7,91.1c-1-1-2.2-1.5-3.6-1.5c-0.8,0-1.6,0.2-2.2,0.6s-1.1,0.9-1.5,1.6
				c-0.4,0.7-0.6,1.4-0.6,2.3s0.2,1.7,0.5,2.3c0.4,0.7,0.9,1.2,1.5,1.6s1.4,0.6,2.2,0.6s1.6-0.1,2.2-0.4c0.7-0.3,1.2-0.7,1.6-1.2
				l1.3,1.3C0.1,99-0.6,99.6-1.5,100s-1.9,0.6-3,0.6c-1.2,0-2.3-0.3-3.3-0.8s-1.7-1.3-2.3-2.3c-0.5-1-0.8-2.1-0.8-3.3
				c0-1.2,0.3-2.4,0.8-3.3c0.5-1,1.3-1.7,2.3-2.3c1-0.5,2.1-0.8,3.3-0.8c1.1,0,2,0.2,2.9,0.5s1.6,0.8,2.2,1.4L-0.7,91.1z"/>
			<path id="path269032" class="st1" d="M8.4,87.6c2,0,3.5,0.6,4.5,1.8c1,1.2,1.5,2.8,1.5,4.8c0,0.3,0,0.6,0,0.7h-10
				c0.2,1.1,0.6,2,1.4,2.7s1.7,1,2.9,1c0.8,0,1.4-0.1,2.1-0.4s1.2-0.7,1.7-1.2l1.2,1.3c-0.6,0.7-1.4,1.2-2.3,1.6
				c-0.9,0.4-1.9,0.6-2.9,0.6c-1.2,0-2.4-0.3-3.3-0.8c-1-0.5-1.7-1.3-2.3-2.3c-0.5-1-0.8-2.1-0.8-3.3c0-1.2,0.3-2.4,0.8-3.3
				c0.5-1,1.3-1.7,2.3-2.3C6.1,87.9,7.2,87.6,8.4,87.6L8.4,87.6z M12.4,93.2c-0.1-1.2-0.4-2.1-1.2-2.7c-0.7-0.7-1.6-1-2.8-1
				c-1.1,0-2.1,0.3-2.8,1s-1.2,1.6-1.3,2.7H12.4z"/>
			<path id="path269034" class="st1" d="M24.5,87.6c1.5,0,2.7,0.4,3.5,1.3s1.3,2.1,1.3,3.6v7.8h-2.2v-7.2c0-1.1-0.3-1.9-0.9-2.5
				s-1.4-0.9-2.5-0.9s-2.1,0.4-2.8,1.1s-1.1,1.6-1.2,2.8v6.8h-2.2V87.7h2.2v2.7C20.5,88.6,22.1,87.6,24.5,87.6z"/>
			<path id="path269036" class="st1" d="M40.1,99.5c-1,0.6-2,0.9-3,0.9s-1.8-0.3-2.4-0.9c-0.6-0.6-0.9-1.5-0.9-2.7v-7h-1.9v-1.7h1.8
				v-3.4H36v3.4h3.9v1.7h-4v6.6c0,0.7,0.1,1.2,0.4,1.5c0.3,0.3,0.6,0.5,1.2,0.5c0.6,0,1.3-0.2,2-0.6L40.1,99.5z"/>
			<path id="path269038" class="st1" d="M45,90.4c0.4-0.9,1-1.6,1.8-2.1s1.7-0.7,2.7-0.7v2.2c-1.3,0-2.3,0.3-3.1,1s-1.3,1.7-1.4,2.9
				v6.7h-2.2V87.7H45V90.4z"/>
			<path id="path269040" class="st1" d="M59.1,100.4v-1.8c-0.9,1.2-2.4,1.9-4.4,1.9c-0.9,0-1.7-0.2-2.3-0.5
				c-0.7-0.3-1.2-0.8-1.5-1.4c-0.4-0.6-0.5-1.3-0.5-2c0-1.1,0.4-2,1.2-2.7s2-1,3.5-1h4v-0.6c0-0.9-0.3-1.6-0.8-2.1s-1.3-0.7-2.4-0.7
				c-1.3,0-2.6,0.5-3.9,1.4l-0.9-1.5c0.9-0.6,1.8-1,2.5-1.3c0.8-0.3,1.7-0.4,2.8-0.4c1.6,0,2.8,0.4,3.7,1.2c0.9,0.8,1.3,1.8,1.3,3.2
				v8.4L59.1,100.4C59.1,100.5,59.1,100.4,59.1,100.4z M55.1,98.6c1,0,1.9-0.2,2.6-0.7c0.7-0.5,1.2-1.2,1.3-2v-1.3h-3.7
				c-1,0-1.8,0.2-2.3,0.5s-0.7,0.8-0.7,1.4s0.2,1.2,0.7,1.6C53.6,98.4,54.3,98.6,55.1,98.6L55.1,98.6z"/>
			<path id="path269042" class="st1" d="M65.4,82.6h2.2v17.8h-2.2V82.6z"/>
			<path id="path269044" class="st1" d="M72.1,87.7h2.2v12.7h-2.2V87.7z M73.2,82.6c0.4,0,0.7,0.1,1,0.4s0.4,0.6,0.4,1
				s-0.1,0.8-0.4,1c-0.3,0.3-0.6,0.4-1,0.4s-0.7-0.1-1-0.4s-0.4-0.6-0.4-1s0.1-0.8,0.4-1C72.5,82.7,72.8,82.6,73.2,82.6z"/>
			<path id="path269046" class="st1" d="M77.9,87.7h10.2v1.6l-7.7,9.2h7.9v1.8H77.7v-1.6l7.7-9.2H78L77.9,87.7L77.9,87.7z"/>
			<path id="path269048" class="st1" d="M96.4,87.6c2,0,3.5,0.6,4.5,1.8c1,1.2,1.5,2.8,1.5,4.8c0,0.3,0,0.6,0,0.7h-10
				c0.2,1.1,0.6,2,1.4,2.7s1.7,1,2.9,1c0.8,0,1.4-0.1,2.1-0.4s1.2-0.7,1.7-1.2l1.2,1.3c-0.6,0.7-1.4,1.2-2.3,1.6s-1.9,0.6-2.9,0.6
				c-1.2,0-2.4-0.3-3.3-0.8c-1-0.5-1.7-1.3-2.3-2.3c-0.5-1-0.8-2.1-0.8-3.3c0-1.2,0.3-2.4,0.8-3.3c0.5-1,1.3-1.7,2.3-2.3
				C94,87.9,95.1,87.6,96.4,87.6L96.4,87.6z M100.3,93.2c-0.1-1.2-0.4-2.1-1.2-2.7c-0.7-0.7-1.6-1-2.8-1c-1.1,0-2.1,0.3-2.8,1
				c-0.7,0.7-1.2,1.6-1.3,2.7H100.3z"/>
			<path id="path269050" class="st1" d="M117.2,82.6v17.8H115v-2.5c-0.5,0.8-1.1,1.5-1.9,2c-0.8,0.4-1.7,0.7-2.8,0.7
				c-1.2,0-2.3-0.3-3.2-0.8c-0.9-0.6-1.6-1.3-2.1-2.3s-0.8-2.1-0.8-3.4c0-1.2,0.3-2.4,0.8-3.3c0.5-1,1.2-1.7,2.1-2.3
				c0.9-0.5,2-0.8,3.2-0.8c1.1,0,2,0.2,2.9,0.7c0.8,0.4,1.5,1.1,1.9,1.9v-7.6L117.2,82.6L117.2,82.6z M110.7,98.6
				c0.8,0,1.6-0.2,2.2-0.6c0.7-0.4,1.2-0.9,1.5-1.6c0.4-0.7,0.6-1.5,0.6-2.3c0-0.9-0.2-1.7-0.6-2.4c-0.4-0.7-0.9-1.2-1.5-1.6
				s-1.4-0.6-2.2-0.6c-0.8,0-1.6,0.2-2.2,0.6s-1.1,0.9-1.5,1.6s-0.6,1.5-0.6,2.3c0,0.9,0.2,1.6,0.6,2.3c0.4,0.7,0.9,1.2,1.5,1.6
				C109.1,98.4,109.8,98.6,110.7,98.6z"/>
			<path id="path269052" class="st1" d="M132.6,84.4c-0.6,0-1.1,0.2-1.4,0.5c-0.4,0.4-0.6,0.9-0.6,1.5v1.7h3.5v1.7h-3.5v10.6h-2.2
				V89.8h-1.7v-1.7h1.7v-1.4c0-0.9,0.2-1.7,0.6-2.4c0.4-0.7,0.9-1.1,1.6-1.5c0.6-0.3,1.3-0.5,2.1-0.5c0.7,0,1.4,0.2,2.2,0.6
				l-0.5,1.8C133.7,84.5,133.2,84.4,132.6,84.4z"/>
			<path id="path269054" class="st1" d="M136.2,87.7h2.2v12.7h-2.2V87.7z M137.3,82.6c0.4,0,0.7,0.1,1,0.4s0.4,0.6,0.4,1
				s-0.1,0.8-0.4,1c-0.3,0.3-0.6,0.4-1,0.4s-0.7-0.1-1-0.4s-0.4-0.6-0.4-1s0.1-0.8,0.4-1C136.5,82.7,136.9,82.6,137.3,82.6z"/>
			<path id="path269056" class="st1" d="M142.9,82.6h2.2v17.8h-2.2V82.6z"/>
			<path id="path269058" class="st1" d="M154.7,87.6c2,0,3.5,0.6,4.5,1.8c1,1.2,1.5,2.8,1.5,4.8c0,0.3,0,0.6,0,0.7h-10
				c0.2,1.1,0.6,2,1.4,2.7s1.7,1,2.9,1c0.8,0,1.4-0.1,2.1-0.4s1.2-0.7,1.7-1.2l1.2,1.3c-0.6,0.7-1.4,1.2-2.3,1.6s-1.9,0.6-2.9,0.6
				c-1.2,0-2.4-0.3-3.3-0.8c-1-0.5-1.7-1.3-2.3-2.3c-0.5-1-0.8-2.1-0.8-3.3c0-1.2,0.3-2.4,0.8-3.3c0.5-1,1.3-1.7,2.3-2.3
				C152.3,87.9,153.4,87.6,154.7,87.6L154.7,87.6z M158.6,93.2c-0.1-1.2-0.4-2.1-1.2-2.7c-0.7-0.7-1.6-1-2.8-1c-1.1,0-2.1,0.3-2.8,1
				s-1.2,1.6-1.3,2.7H158.6z"/>
			<path id="path269060" class="st1" d="M176.9,90.5c-0.5-0.3-1.1-0.6-1.8-0.8c-0.6-0.2-1.2-0.3-1.8-0.3c-0.7,0-1.2,0.1-1.6,0.4
				c-0.4,0.2-0.6,0.6-0.6,1.1s0.2,0.9,0.7,1.2c0.5,0.3,1.2,0.5,2.1,0.8s1.6,0.5,2.2,0.8s1,0.6,1.4,1.1s0.6,1.2,0.6,2
				c0,1.2-0.5,2.1-1.4,2.7s-2,0.9-3.4,0.9c-0.9,0-1.9-0.2-2.8-0.5s-1.6-0.7-2.2-1.3l0.8-1.6c0.5,0.5,1.2,0.9,1.9,1.2
				c0.8,0.3,1.5,0.4,2.3,0.4s1.3-0.1,1.8-0.4c0.4-0.3,0.7-0.7,0.7-1.2c0-0.6-0.2-1-0.7-1.3s-1.2-0.6-2.1-0.9
				c-0.8-0.2-1.5-0.5-2.1-0.7c-0.5-0.3-1-0.6-1.4-1.1s-0.6-1.1-0.6-1.9c0-1.2,0.4-2.1,1.3-2.7s1.9-0.9,3.2-0.9
				c0.8,0,1.5,0.1,2.3,0.3c0.8,0.2,1.4,0.5,1.9,0.9L176.9,90.5z"/>
			<path id="path269062" class="st1" d="M188.2,87.6c1.5,0,2.7,0.4,3.5,1.3s1.3,2.1,1.3,3.6v7.8h-2.2v-7.2c0-1.1-0.3-1.9-0.9-2.5
				s-1.4-0.9-2.5-0.9c-1.2,0-2.2,0.4-2.9,1.2c-0.7,0.8-1.1,1.9-1.1,3.2v6.2h-2.2V82.5h2.2v7.8C184.2,88.6,185.8,87.6,188.2,87.6
				L188.2,87.6z"/>
			<path id="path269064" class="st1" d="M204.7,100.4v-1.8c-0.9,1.2-2.4,1.9-4.4,1.9c-0.9,0-1.7-0.2-2.3-0.5
				c-0.7-0.3-1.2-0.8-1.5-1.4c-0.4-0.6-0.5-1.3-0.5-2c0-1.1,0.4-2,1.2-2.7s2-1,3.5-1h4v-0.6c0-0.9-0.3-1.6-0.8-2.1s-1.3-0.7-2.4-0.7
				c-1.3,0-2.6,0.5-3.9,1.4l-0.9-1.5c0.9-0.6,1.8-1,2.5-1.3c0.8-0.3,1.7-0.4,2.8-0.4c1.6,0,2.8,0.4,3.7,1.2c0.9,0.8,1.3,1.8,1.3,3.2
				v8.4L204.7,100.4L204.7,100.4L204.7,100.4z M200.7,98.6c1,0,1.9-0.2,2.6-0.7s1.2-1.2,1.3-2v-1.3h-3.7c-1,0-1.8,0.2-2.3,0.5
				s-0.7,0.8-0.7,1.4s0.2,1.2,0.7,1.6C199.2,98.4,199.9,98.6,200.7,98.6z"/>
			<path id="path269066" class="st1" d="M213.1,90.4c0.4-0.9,1-1.6,1.8-2.1s1.7-0.7,2.7-0.7v2.2c-1.3,0-2.3,0.3-3.1,1
				s-1.3,1.7-1.4,2.9v6.7h-2.2V87.7h2.2V90.4z"/>
			<path id="path269068" class="st1" d="M220.1,87.7h2.2v12.7h-2.2V87.7z M221.2,82.6c0.4,0,0.7,0.1,1,0.4s0.4,0.6,0.4,1
				s-0.1,0.8-0.4,1c-0.3,0.3-0.6,0.4-1,0.4s-0.7-0.1-1-0.4s-0.4-0.6-0.4-1s0.1-0.8,0.4-1C220.4,82.7,220.8,82.6,221.2,82.6z"/>
			<path id="path269070" class="st1" d="M233.7,87.6c1.5,0,2.7,0.4,3.5,1.3s1.3,2.1,1.3,3.6v7.8h-2.2v-7.2c0-1.1-0.3-1.9-0.9-2.5
				s-1.4-0.9-2.5-0.9s-2.1,0.4-2.8,1.1s-1.1,1.6-1.2,2.8v6.8h-2.2V87.7h2.2v2.7C229.7,88.6,231.3,87.6,233.7,87.6z"/>
			<path id="path269072" class="st1" d="M253.7,87.7v11.4c0,1.2-0.3,2.3-0.8,3.2c-0.5,0.9-1.3,1.6-2.3,2.1s-2.1,0.7-3.4,0.7
				c-1.9,0-3.6-0.6-5.2-1.8l1-1.6c0.6,0.5,1.3,0.9,1.9,1.1c0.7,0.3,1.4,0.4,2.2,0.4c1.3,0,2.4-0.4,3.1-1.1c0.8-0.7,1.2-1.7,1.2-3
				v-1.8c-0.4,0.8-1.1,1.4-1.8,1.8c-0.8,0.4-1.6,0.6-2.6,0.6c-1.1,0-2.1-0.3-3-0.8s-1.5-1.3-2-2.2c-0.5-0.9-0.7-2-0.7-3.2
				s0.2-2.2,0.7-3.1s1.2-1.6,2-2.1c0.9-0.5,1.9-0.8,3-0.8c1,0,1.9,0.2,2.6,0.6c0.8,0.4,1.4,1,1.8,1.8v-2.3L253.7,87.7L253.7,87.7z
				 M247.4,98c0.8,0,1.5-0.2,2.1-0.6s1.1-0.9,1.4-1.5c0.4-0.7,0.5-1.4,0.5-2.2c0-0.8-0.2-1.6-0.5-2.2c-0.3-0.7-0.8-1.2-1.4-1.5
				s-1.3-0.6-2.1-0.6s-1.5,0.2-2.1,0.6s-1.1,0.9-1.4,1.5c-0.4,0.6-0.5,1.4-0.5,2.2c0,1.2,0.4,2.3,1.2,3.1
				C245.2,97.6,246.2,98,247.4,98L247.4,98z"/>
		</g>
		<g id="title" transform="translate(0 0)">
			<path id="path269075" class="st2" d="M5.4,62.3H9L8.9,11.9h-3l-22.5,39l-22.5-39h-3.1v50.4h3.6v-43l21.1,36.3h1.8L5.4,19.2V62.3z
				"/>
			<path id="path269077" class="st2" d="M59.1,35H26.5v3.2h32.6V35L59.1,35z M59.1,11.9H26.5v3.3h32.6V11.9L59.1,11.9z M26.5,58.9
				v3.3h32.6v-3.3H26.5z"/>
			<path id="path269079" class="st2" d="M84.3,15.2v47.1H88V15.2h18.1v-3.3h-40v3.3H84.3z"/>
			<path id="path269081" class="st2" d="M131.1,11.9h-3.7l-23.2,50.4h4l21-46.4l21.1,46.4h4L131.1,11.9z"/>
			<path id="path269083" class="st2" d="M167.1,57.1c3.5,3.7,8.5,5.5,14.9,5.5c6.3,0,11.3-1.8,14.9-5.5c3.5-3.7,5.3-9.1,5.3-16.2
				v-29h-3.7v28.9c0,6.2-1.4,10.9-4.2,13.9c-2.9,3.1-6.9,4.6-12.2,4.6c-5.4,0-9.5-1.5-12.3-4.6c-2.9-3-4.2-7.7-4.2-13.9V11.9h-3.7
				v29C161.9,48,163.6,53.4,167.1,57.1L167.1,57.1z"/>
			<path id="path269085" class="st2" d="M252.4,16.4c-3.6-3-8.6-4.5-14.9-4.5h-18.1v3.3h18.1c5.3,0,9.4,1.2,12.3,3.6
				c2.8,2.4,4.2,5.8,4.2,10.1c0,4.4-1.4,7.8-4.2,10.1c-2.9,2.4-7,3.5-12.3,3.5h-18.1v19.8h3.7V45.8h14.4c6.3,0,11.3-1.4,14.9-4.5
				c3.6-3,5.4-7.1,5.4-12.5C257.8,23.6,256,19.4,252.4,16.4z"/>
			<path id="path269087" class="st2" d="M270.2,11.9v50.4h32.7V59h-29V11.9H270.2z"/>
			<path id="path269089" class="st2" d="M319.4,59.3c4,2.2,8.4,3.3,13.4,3.3c4.9,0,9.4-1.1,13.4-3.3s7.1-5.3,9.4-9.1
				c2.3-3.9,3.5-8.2,3.5-13.1c0-4.8-1.2-9.2-3.5-13.1s-5.4-6.9-9.4-9.1s-8.5-3.3-13.4-3.3c-5,0-9.4,1.2-13.4,3.4s-7.1,5.3-9.4,9.1
				s-3.4,8.3-3.4,13c0,4.8,1.1,9.1,3.4,13C312.2,54,315.3,57.1,319.4,59.3z M344.2,56.4c-3.5,1.9-7.3,2.9-11.4,2.9
				c-4.2,0-8.1-0.9-11.5-2.9c-3.5-1.9-6.1-4.5-8.1-7.9s-3-7.2-3-11.4s0.9-7.9,3-11.3c1.9-3.4,4.6-6,8.1-8c3.5-1.9,7.3-2.9,11.5-2.9
				s8,1,11.4,2.9s6,4.6,8.1,8c1.9,3.4,3,7.1,3,11.3s-1,8-3,11.4C350.3,51.8,347.6,54.5,344.2,56.4z"/>
			<path id="path269091" class="st2" d="M389.4,11.9h-3.7l-23.1,50.4h4l21-46.4l21.1,46.4h4L389.4,11.9z"/>
			<path id="path269093" class="st2" d="M465.1,24.1c-2.3-3.8-5.5-6.8-9.5-9s-8.7-3.2-13.9-3.2h-19.9v3.3h19.7
				c4.6,0,8.7,0.9,12.3,2.8c3.5,1.9,6.3,4.5,8.2,7.7c1.9,3.3,2.9,7.1,2.9,11.4s-1,8.1-2.9,11.4s-4.7,5.9-8.2,7.8
				c-3.6,1.9-7.7,2.7-12.3,2.7h-16V37.1h-3.7v25.2h19.9c5.2,0,9.9-1.1,13.9-3.2s7.2-5.1,9.5-8.9c2.2-3.8,3.4-8.1,3.4-13
				C468.5,32.2,467.3,27.9,465.1,24.1L465.1,24.1z"/>
		</g>
		<path class="st1" d="M-92.2,58.4c0-8.2,0-16.4,0-24.6c0-1.8-0.5-2.9-2.1-3.8c-14.2-8.2-28.4-16.5-42.6-24.6
			c-0.9-0.5-2.7-0.5-3.7,0c-14.3,8.1-28.4,16.4-42.6,24.6c-1.6,0.9-2.1,2-2.1,3.8c0.1,16.4,0.1,32.8,0,49.2c0,1.7,0.5,2.7,2,3.6
			c14.2,8.2,28.4,16.4,42.6,24.7c1.5,0.9,2.6,0.9,4,0c14.1-8.2,28.2-16.4,42.3-24.6c1.7-1,2.3-2.1,2.2-4
			C-92.3,74.6-92.2,66.5-92.2,58.4z M-139.9,107.6c0,0.3-0.1,0.6-0.2,1.3c-1-0.5-1.7-0.8-2.4-1.2c-12.8-7.4-25.6-14.8-38.4-22.4
			c-1-0.6-2.2-2.2-2.2-3.3c-0.1-15.3-0.1-30.6-0.1-45.9c0-0.6,0.1-1.1,0.2-2c1,0.5,1.8,0.8,2.5,1.2c12.8,7.4,25.7,14.8,38.4,22.4
			c1,0.6,2,2,2,3.1C-139.9,76.4-139.9,92-139.9,107.6z M-140.6,55.7c-13.2-7.5-26.4-15.1-39.5-22.8c-0.5-0.3-0.9-0.7-1.6-1.2
			c1.1-0.7,1.8-1.2,2.7-1.7c12.6-7.3,25.3-14.6,37.9-22c1.8-1,3.1-1.1,4.8,0c12.6,7.4,25.3,14.7,37.9,22c0.8,0.5,1.6,1,2.7,1.7
			c-0.9,0.6-1.5,1.1-2.2,1.4c-12.9,7.5-25.8,15-38.7,22.4C-137.7,56.2-139.6,56.3-140.6,55.7z M-94.6,82c0,1.1-1.1,2.7-2.2,3.3
			c-12.8,7.5-25.6,14.9-38.4,22.4c-0.7,0.4-1.4,0.7-2.4,1.2c-0.1-0.7-0.2-1-0.2-1.3c0-15.6-0.1-31.2,0.1-46.8c0-1.1,1.1-2.5,2-3.1
			c12.8-7.5,25.6-14.9,38.4-22.4c0.7-0.4,1.5-0.8,2.5-1.2c0.1,0.9,0.2,1.4,0.2,2C-94.5,51.4-94.5,66.7-94.6,82z"/>
	</g>
</g>
</svg>
